<mxfile host="app.diagrams.net" modified="2022-05-08T10:34:48.657Z" agent="5.0 (Macintosh; Intel Mac OS X 10_15_7) AppleWebKit/537.36 (KHTML, like Gecko) Chrome/101.0.4951.54 Safari/537.36" etag="2D160UTYGF7F_izlnCI8" version="17.4.4" type="github">
  <diagram id="Wtd_sJ8rBiIMwc7lSpW-" name="Mapa Mental Conocimiento en Red">
    <mxGraphModel dx="2291" dy="1231" grid="1" gridSize="10" guides="1" tooltips="1" connect="1" arrows="1" fold="1" page="1" pageScale="1" pageWidth="1169" pageHeight="827" math="0" shadow="0">
      <root>
        <mxCell id="0" />
        <mxCell id="1" parent="0" />
        <mxCell id="9DuvOHGDFSPzMcPhEB32-3" style="edgeStyle=orthogonalEdgeStyle;sketch=1;orthogonalLoop=1;jettySize=auto;html=1;entryX=0;entryY=0.5;entryDx=0;entryDy=0;fontSize=16;" edge="1" parent="1" source="9DuvOHGDFSPzMcPhEB32-1" target="9DuvOHGDFSPzMcPhEB32-2">
          <mxGeometry relative="1" as="geometry" />
        </mxCell>
        <mxCell id="9DuvOHGDFSPzMcPhEB32-13" style="edgeStyle=orthogonalEdgeStyle;sketch=1;orthogonalLoop=1;jettySize=auto;html=1;entryX=0;entryY=0.5;entryDx=0;entryDy=0;fontSize=17;" edge="1" parent="1" source="9DuvOHGDFSPzMcPhEB32-1" target="9DuvOHGDFSPzMcPhEB32-12">
          <mxGeometry relative="1" as="geometry" />
        </mxCell>
        <mxCell id="9DuvOHGDFSPzMcPhEB32-1" value="&lt;font style=&quot;font-size: 17px;&quot;&gt;Conocimiento en Red&lt;/font&gt;" style="ellipse;whiteSpace=wrap;html=1;fontStyle=1;rounded=0;sketch=1;fontSize=17;fillColor=#f8cecc;strokeColor=#b85450;" vertex="1" parent="1">
          <mxGeometry x="500" y="330" width="150" height="100" as="geometry" />
        </mxCell>
        <mxCell id="9DuvOHGDFSPzMcPhEB32-9" style="edgeStyle=orthogonalEdgeStyle;sketch=1;orthogonalLoop=1;jettySize=auto;html=1;entryX=0;entryY=0.5;entryDx=0;entryDy=0;fontSize=16;" edge="1" parent="1" source="9DuvOHGDFSPzMcPhEB32-2" target="9DuvOHGDFSPzMcPhEB32-8">
          <mxGeometry relative="1" as="geometry" />
        </mxCell>
        <mxCell id="9DuvOHGDFSPzMcPhEB32-10" style="edgeStyle=orthogonalEdgeStyle;sketch=1;orthogonalLoop=1;jettySize=auto;html=1;entryX=0;entryY=0.5;entryDx=0;entryDy=0;fontSize=16;" edge="1" parent="1" source="9DuvOHGDFSPzMcPhEB32-2" target="9DuvOHGDFSPzMcPhEB32-7">
          <mxGeometry relative="1" as="geometry" />
        </mxCell>
        <mxCell id="9DuvOHGDFSPzMcPhEB32-11" style="edgeStyle=orthogonalEdgeStyle;sketch=1;orthogonalLoop=1;jettySize=auto;html=1;exitX=1;exitY=0.5;exitDx=0;exitDy=0;entryX=0;entryY=0.5;entryDx=0;entryDy=0;fontSize=17;" edge="1" parent="1" source="9DuvOHGDFSPzMcPhEB32-2" target="9DuvOHGDFSPzMcPhEB32-5">
          <mxGeometry relative="1" as="geometry" />
        </mxCell>
        <mxCell id="9DuvOHGDFSPzMcPhEB32-2" value="Conceptos claves" style="rounded=1;whiteSpace=wrap;html=1;sketch=1;fontSize=16;fillColor=#d5e8d4;strokeColor=#82b366;fontStyle=1" vertex="1" parent="1">
          <mxGeometry x="750" y="170" width="120" height="60" as="geometry" />
        </mxCell>
        <mxCell id="9DuvOHGDFSPzMcPhEB32-15" style="edgeStyle=orthogonalEdgeStyle;sketch=1;orthogonalLoop=1;jettySize=auto;html=1;entryX=0;entryY=0.5;entryDx=0;entryDy=0;fontSize=17;" edge="1" parent="1" source="9DuvOHGDFSPzMcPhEB32-5" target="9DuvOHGDFSPzMcPhEB32-14">
          <mxGeometry relative="1" as="geometry" />
        </mxCell>
        <mxCell id="9DuvOHGDFSPzMcPhEB32-30" style="edgeStyle=orthogonalEdgeStyle;sketch=1;orthogonalLoop=1;jettySize=auto;html=1;exitX=1;exitY=0.25;exitDx=0;exitDy=0;entryX=1;entryY=0.5;entryDx=0;entryDy=0;dashed=1;fontSize=7;" edge="1" parent="1" source="9DuvOHGDFSPzMcPhEB32-5" target="9DuvOHGDFSPzMcPhEB32-28">
          <mxGeometry relative="1" as="geometry">
            <Array as="points">
              <mxPoint x="1720" y="72" />
              <mxPoint x="1720" y="444" />
            </Array>
          </mxGeometry>
        </mxCell>
        <mxCell id="9DuvOHGDFSPzMcPhEB32-32" style="edgeStyle=orthogonalEdgeStyle;sketch=1;orthogonalLoop=1;jettySize=auto;html=1;exitX=1;exitY=0.25;exitDx=0;exitDy=0;entryX=1;entryY=0.5;entryDx=0;entryDy=0;dashed=1;fontSize=7;" edge="1" parent="1" source="9DuvOHGDFSPzMcPhEB32-5" target="9DuvOHGDFSPzMcPhEB32-29">
          <mxGeometry relative="1" as="geometry">
            <Array as="points">
              <mxPoint x="1720" y="73" />
              <mxPoint x="1720" y="443" />
              <mxPoint x="1620" y="443" />
              <mxPoint x="1620" y="520" />
            </Array>
          </mxGeometry>
        </mxCell>
        <mxCell id="9DuvOHGDFSPzMcPhEB32-5" value="&lt;b&gt;Conocimiento&lt;/b&gt; &lt;i&gt;(&lt;a href=&quot;https://dle.rae.es/conocimiento&quot;&gt;RAE&lt;/a&gt;)&lt;/i&gt;: &lt;br&gt;1. Percibir todo lo que algo no es.&lt;br&gt;2. Noción de la naturaleza, cualidades y relaciones de las cosas.&amp;nbsp;" style="rounded=1;whiteSpace=wrap;html=1;sketch=1;fontSize=16;align=left;" vertex="1" parent="1">
          <mxGeometry x="950" y="50" width="310" height="90" as="geometry" />
        </mxCell>
        <mxCell id="9DuvOHGDFSPzMcPhEB32-7" value="&lt;b&gt;Colaborar&lt;/b&gt; &lt;i&gt;(&lt;a href=&quot;https://dle.rae.es/colaborar&quot;&gt;RAE&lt;/a&gt;)&lt;/i&gt;:&lt;br&gt;1.&amp;nbsp;Trabajar con otra u otras personas en la realización de una obra." style="rounded=1;whiteSpace=wrap;html=1;sketch=1;fontSize=16;align=left;" vertex="1" parent="1">
          <mxGeometry x="950" y="270" width="310" height="60" as="geometry" />
        </mxCell>
        <mxCell id="9DuvOHGDFSPzMcPhEB32-16" style="edgeStyle=orthogonalEdgeStyle;sketch=1;orthogonalLoop=1;jettySize=auto;html=1;entryX=0;entryY=0.5;entryDx=0;entryDy=0;fontSize=17;" edge="1" parent="1" source="9DuvOHGDFSPzMcPhEB32-8" target="9DuvOHGDFSPzMcPhEB32-14">
          <mxGeometry relative="1" as="geometry" />
        </mxCell>
        <mxCell id="9DuvOHGDFSPzMcPhEB32-8" value="&lt;b&gt;Red&lt;/b&gt; &lt;i&gt;(&lt;a href=&quot;https://dle.rae.es/red&quot;&gt;RAE&lt;/a&gt;)&lt;/i&gt;:&lt;br&gt;1. Conjunto de equipos informáticos conectados entre sí y que pueden intercambiar información." style="rounded=1;whiteSpace=wrap;html=1;sketch=1;fontSize=16;align=left;" vertex="1" parent="1">
          <mxGeometry x="950" y="160" width="310" height="90" as="geometry" />
        </mxCell>
        <mxCell id="9DuvOHGDFSPzMcPhEB32-21" style="edgeStyle=orthogonalEdgeStyle;sketch=1;orthogonalLoop=1;jettySize=auto;html=1;fontSize=14;" edge="1" parent="1" source="9DuvOHGDFSPzMcPhEB32-12" target="9DuvOHGDFSPzMcPhEB32-20">
          <mxGeometry relative="1" as="geometry" />
        </mxCell>
        <mxCell id="9DuvOHGDFSPzMcPhEB32-12" value="Gestión del conocimiento" style="rounded=1;whiteSpace=wrap;html=1;sketch=1;fontSize=16;fillColor=#ffe6cc;strokeColor=#d79b00;fontStyle=1" vertex="1" parent="1">
          <mxGeometry x="750" y="690" width="120" height="60" as="geometry" />
        </mxCell>
        <mxCell id="9DuvOHGDFSPzMcPhEB32-18" style="edgeStyle=orthogonalEdgeStyle;sketch=1;orthogonalLoop=1;jettySize=auto;html=1;exitX=0.5;exitY=1;exitDx=0;exitDy=0;entryX=1;entryY=0.5;entryDx=0;entryDy=0;fontSize=17;" edge="1" parent="1" source="9DuvOHGDFSPzMcPhEB32-14" target="9DuvOHGDFSPzMcPhEB32-7">
          <mxGeometry relative="1" as="geometry" />
        </mxCell>
        <mxCell id="9DuvOHGDFSPzMcPhEB32-19" value="&lt;i style=&quot;font-size: 14px&quot;&gt;Por lo que el conocimiento en red, &lt;br&gt;es aquel producto de la colaboración.&lt;/i&gt;" style="edgeLabel;html=1;align=center;verticalAlign=middle;resizable=0;points=[];fontSize=17;" vertex="1" connectable="0" parent="9DuvOHGDFSPzMcPhEB32-18">
          <mxGeometry x="-0.742" y="-1" relative="1" as="geometry">
            <mxPoint as="offset" />
          </mxGeometry>
        </mxCell>
        <mxCell id="9DuvOHGDFSPzMcPhEB32-14" value="&lt;b&gt;Conocimiento en red&lt;/b&gt;: &lt;br&gt;1. Aquel conocimiento obtenido y desarrollado mediante el intercambio de información." style="rounded=1;whiteSpace=wrap;html=1;sketch=1;fontSize=16;align=left;" vertex="1" parent="1">
          <mxGeometry x="1370" y="110" width="310" height="90" as="geometry" />
        </mxCell>
        <mxCell id="9DuvOHGDFSPzMcPhEB32-26" style="edgeStyle=orthogonalEdgeStyle;sketch=1;orthogonalLoop=1;jettySize=auto;html=1;exitX=0.5;exitY=1;exitDx=0;exitDy=0;entryX=0;entryY=0.5;entryDx=0;entryDy=0;fontSize=7;dashed=1;" edge="1" parent="1" source="9DuvOHGDFSPzMcPhEB32-20" target="9DuvOHGDFSPzMcPhEB32-23">
          <mxGeometry relative="1" as="geometry" />
        </mxCell>
        <mxCell id="9DuvOHGDFSPzMcPhEB32-33" style="edgeStyle=orthogonalEdgeStyle;sketch=1;orthogonalLoop=1;jettySize=auto;html=1;entryX=0;entryY=0.5;entryDx=0;entryDy=0;fontSize=7;" edge="1" parent="1" source="9DuvOHGDFSPzMcPhEB32-20" target="9DuvOHGDFSPzMcPhEB32-28">
          <mxGeometry relative="1" as="geometry" />
        </mxCell>
        <mxCell id="9DuvOHGDFSPzMcPhEB32-34" style="edgeStyle=orthogonalEdgeStyle;sketch=1;orthogonalLoop=1;jettySize=auto;html=1;entryX=0;entryY=0.5;entryDx=0;entryDy=0;fontSize=7;" edge="1" parent="1" source="9DuvOHGDFSPzMcPhEB32-20" target="9DuvOHGDFSPzMcPhEB32-29">
          <mxGeometry relative="1" as="geometry" />
        </mxCell>
        <mxCell id="9DuvOHGDFSPzMcPhEB32-36" style="edgeStyle=orthogonalEdgeStyle;sketch=1;orthogonalLoop=1;jettySize=auto;html=1;fontSize=7;" edge="1" parent="1" source="9DuvOHGDFSPzMcPhEB32-20" target="9DuvOHGDFSPzMcPhEB32-35">
          <mxGeometry relative="1" as="geometry" />
        </mxCell>
        <mxCell id="9DuvOHGDFSPzMcPhEB32-20" value="&lt;b&gt;Modelo de&amp;nbsp;Nonaka y Takeuchi&lt;br&gt;&lt;/b&gt;" style="rounded=1;whiteSpace=wrap;html=1;sketch=1;fontSize=16;align=center;" vertex="1" parent="1">
          <mxGeometry x="960" y="690" width="150" height="60" as="geometry" />
        </mxCell>
        <mxCell id="9DuvOHGDFSPzMcPhEB32-23" value="&lt;p style=&quot;line-height: 200% ; font-family: &amp;#34;times new roman&amp;#34; ; margin-left: 0.5in ; text-indent: -0.5in ; margin-top: 0px ; margin-bottom: 0px ; font-size: 7px&quot;&gt;Nonaka, P. K. I., Nonaka, I. O., Ikujiro, N., Takeuchi, B. P. M. I. B. R. H., Nonaka, O. K. I., Both Professors of Management at the Institute of Business Research Hirotaka Takeuchi, Hirotaka, T., &amp;amp; 竹内弘高. (1995). &lt;i&gt;The Knowledge-creating Company&lt;/i&gt;. Oxford University Press.&lt;/p&gt;" style="shape=process;whiteSpace=wrap;html=1;backgroundOutline=1;sketch=1;fontSize=6;align=left;" vertex="1" parent="1">
          <mxGeometry x="1080" y="940" width="310" height="60" as="geometry" />
        </mxCell>
        <mxCell id="9DuvOHGDFSPzMcPhEB32-27" value="" style="shape=image;verticalLabelPosition=bottom;labelBackgroundColor=default;verticalAlign=top;aspect=fixed;imageAspect=0;image=data:image/png,iVBORw0KGgoAAAANSUhEUgAAAoMAAAG9CAMAAAEuL7xqAAAAAXNSR0IArs4c6QAAAARnQU1BAACxjwv8YQUAAAF3UExURQAAAOPf529ff2ZefcrD0eTg55uQp8vE0uXh6QAAAG1efAAAAObi6czF07Opvefj6s3G1EFAQs7H1M7H1QAAAHBhftTP2tDJ1ot/mHJjgLetwNbR3NLL2D9ijaOYrqSZr9jT3djT3nVmg9nU3r+3yNrV38C4ybyyxZGFnsG5ydvW4MK6y9zX4ZOHn21dfMO7y5SIoMS8zN7Z45WJoQAAAKugtAAAAMW9zbCnuuTh6ODb48a+zm1de5eLo21dewAAAObj6eLd5cjAz8nB0JqOpejl68rC0c/J1enm7LKwtNDK1wAAANHL1wAAAHNlgrivwn18f9LM2QAAAJ+TqiAgINPN2bmww9TO2bqxxDxfjNXP23dphdbQ2wAAAMrHzb20xtfR3Y6BmtzY4b61x93Z4gAAAGxdewAAAN7a48S9zThdisC3yQAAAG9ff2BfYayit+Dc5Ma/z8K5yj9dieHd5Wxde35wi5mXm8jBz+Le5gAAAAAAAAAAALZYj+0AAAB9dFJOUwD/IP///////8v/uP//////////7v//////////4f/////////////////////X//////92/yL//////+f/gFj//////////////5b/L/////9K////////7f///9z/////////PN///////4UQ/////////+//////Z6gTroL8XwAAAAlwSFlzAAAXEQAAFxEByibzPwAAP/NJREFUeF7tnYuD3MSW3ptdHGw3jhnjxZuF3MUXm8SPXQdvpx2bDW3DjulxM5vBGcdZ4p4mHvoKrs0EWLMz4Pnjc86pT1KVVKVnS+ruqZ9hWlWSSlVHn+qlUlVvbegHwQCbnXNW8RfiCOSvmwCHw7nS/LkcOCuLcTlwVhY4sig4KwscWZRe77O8m40jhS38agT0j9jgLYbO+Eyd6IQPC3b578H48JB/DYKAQtoNDvigPXLjrCzUiYXBWU62XSHOhFdwaeBEJ44QObT9J/z3EXwicKKL47ktRAoIW/om6PUGdJIT3ocjY2azF9hikkHSGXk5Co6M+GZ2HVuK2Q/YUNAZr9WJTnBkhIoU21DFLhFJOmOqTnSCI0Pe5AA2JZjZ7Ar7mEHSGSN1ohMcGYKw4u10iHngyBAtwChI2QY4KwscGWKE+KEKcV8cCpyVBY4Em0aIKnpGsnFWFjgyJBHiE/5jDXGC3zQ4MkSF+J1yjGc3+U/NOKogEYr8TYcoT00wCqKnh/K8+EnCkYw6/zb/fXSD/+4rH/4TgrNSaEbAkQzipxyM2raEOJoP1YYNHMmotEZBvo0ALSFmgiMZCvFt9XPl1M+xLeuFGG1o2+oX4KwscKQicTrx2+wIWwqclQWOBMkgo6iG4KwscGSIEcQtKm6wGUJnlM3D3xcbnrssPykjVIgj80iFNtuEW4fO6KsTrQyd5bUTOuulOtkJjiwKznLx+/GiQ2RwZFFwVhY4sig4KwscWRSc5YLbJnwYVxIPuaJI1cQkwQ7/3QprqzgzC3VgYXBWFjiyKDgrCxxZFJy1FgTDIKMoCnpzycHWotWaRVbtvQp9suog6A2m/UGGeT05UD0pyCqeWuMfVeeNPAdZdTdmRGKKj3aw8CeqkQDRgVMUdaILDhA5aFHUiS4WHiD3ruDAolAscvpk6CAqS6XcTHfIhMRFbcE+nh0KK9jYOlA9QwbktbG7wRvSEYSzHFi7JrJRJ2aBA02eq0ooXDo4KwMcqLPPgT15xxokznLAGQoO1IjDOZ0OsdfL63TGgTFGIKkQy7cMEkEkQ8RZGeDAkI8lADYfgkqEWDrJcv5s9rEEGnnE9HpUT88EB4ao8LCtQvxIHABnZYADgYrgLeW4rwJE8AqclQEOBCpAtQ3XF7UDfG4GWKw/IgYHAksMCwWolbk4EKgAwyCcAWaVkDgwRAWhS+ZmOsApd+JMoocmGOlPDw5kuB9HhXT+KA5Q+YTgrAxwIEHNcfqrna82LQFmdlviQEIllHKtyK1+jKY5zsoABxKwHOeDt+/BkYxguQDDkyWDnZ2T7ToBckjfYysiEV7JADnV2AJJd9kAJbXYJFLhc4Dlc2zm8rvy8xU8Y7I7XvhiOFBHwpJMNo060YW91MskO4aVAsyivaqIG5yVAQ4sCs5y0FSVONgZbwU7wV4wDux1zgOqJUrtsKsYlkGd6KKRABdKgwFyHc31kA7DTo2FX3+ZoIwS6azf0TKhfwMOMOA3PH3fc9MopNtQoctNVinYHFG/QtAL5nV6wej8EVeeF4Kel+T1fHTD8ud2KxNDFJcNoa5RER9DQV2jHgiqIeQSNYc9IqhxsLsVqE7U3fFBMN6i2q2l/zNJEOzRacQGVYcPuKd1j0PaDUfc4SK1QFANgYtUZFv+Iqii3L/0YnbjWzjykUvUBEHlg0ZwDPr0MpFLDCqOHUbpi6Cyua3ipI06PKd84HIilzgjf0sTVqQQVBYSF8tQkAsOfw11jXrjrxGUG46GjMqywTuxaUUuMcgbQ5gNgnJCUYj7X1QvmT7yh8fuYNOGXKLmS00E5YIicEptnZbYhcSPCTmwZUEukdfZlQOCckCXfxBtxTFhR9TDr+9IgovUAkHZoYvL6NTx+WQ0yH0Nm88yooiL1AJB2YmunY4E+TyLN9/AZhJcpBYIyk4YMc4PZUND87LsBbhILRCUnfDSp+wxDDutlyCGvHFfbUVcmckoXaZQDIPeKBgNg4ka0ZOgT7v7gcqWeOys3jBHUHZe6FEkji5cVk6CnGF5QpvYSoKL1AJBJcCrC4kYNjm2sUuPFuXjb2EzCS4i8Hh3KV0mqhTUm9W0bzQaTQJbAYmgTDajguNjPVI6mr/rEAIXqQWCMvmBLhpeNt7S0D1v2Q4AuAgz6ZO6qnT8ICgTjgAjjmvxpvBA3OfhyjRhczaUOGjXVW4N+DOmKwEuUgsEleINurKp/4fkcyf53u7TzAg2GkNluC+x7eAqH4NtK7hILRCUFb7+7AM4UsjnSJnxaz6G4/FdiQVhfi50A76oOrrBRWqBoLJAdBIkS0EruEgl+mXaeopnZLqPnTfdilxiXrX7W72YQFANIZeYP5af0uA0BNUQconwdpVE9Ym0EsOarw8QVEPgIrVAUA2Bi1TD7IMN5D9FgX7DGLwpd6CuUZFEDIOdvR2O5uFOcEAO7rB0vcI3wbfC/GeLtreMBKprVMT3tAvqGhVBDDFMuiHUNSqCGC4xqRiG7dgKr+mHNbu3ChIEAx5JENAGfAozDOZy0jQ8dz1mjjhh8CiSacBfWA0HuJ9T8hkMFjBYxePxtMpk6Z9aynB4bPzQ6Jj0rBIo54PedMClv3KVR87nbv3FoD5ojGCvYDAZ1RkkKecrnX6GYJm/F596NFtXWv6amI9hfdY9hmg1FuUsfgvyH+Ua9WKIlndRzuK3IKq97GNo4GNoAUEVZT1jSCWzXKoiCKooVWL4Wb3x6AhKscfTJMqWZV5GoVAM407YRd5lCpVjtbOr+qX3+Ft/C8kYBjzLwAZ3Lwsb413uWN7itDIqhmoy06qokBR7492dDRXFPYcRrTZETzZPmbDBsxAROF3FsB4qpMJU0WFNEFRR2owhxlUiqKKcvfrJbP/cXbhyqRVDvFFFUIVQIzgV1u9qU7R6lzGcWCN7jK4gMZxOq715LPfylkeOKB4++YrHMQnY6UZi2N/OmynOzvbv8oOgcohiFD4pm8rjEpwu1F2uFsFRCRuqMboyu6H2LCtVwuFAYlh1SDtAUFnwONdwoJqR2+RHUWIY5M37kQ2CyuC6Hg8zP7xCe5LTMhpIDM+Ufz+jg6AyMAyVyLHv0D7neHcCdzlv7t5MEJQbI4LJGCb2plA2lAtVBkE5+UKPwtccoXj4K8NubFpQOmz2LlMEwqGvfEtBXKJwtoNNCyqG9b5cQFAu+FnApkQtAp45RpQYHudN+JwNgnJBl0fhxjGZPWcdqqlQlS+hbyeRGE6rDqpSICgH30aX55HEn4dPijHskDY/wWYKiWFNEJQDuroa/M9yowhGz7IWrSwlthLDaEO2whhyNo7N+KA0jceQx0eqrXAjyg/JI3ygqYBWn4ikaTyGv8xmd2SDBzzLRhTD+5rltM0EjceQLq2GXdOGeqSjGOrR6jaGiY04hpRThs/KksZQu820xXOrW+g0hrEfjyy+gM0ErcbwJ9mwxvAIFfA0cQyrv1FFUHYoH1Fa4ym8ZKOyDSfUQB9Me0PH4JJpsuyOU4Sg7MTFBW3IljWGtBV/+mNg3OWc94VSeg+mE570ohdMRmGcEZSDKBafcxRnN879A74vJKJ92laSKjpMJgRBOeBoqa1PeJP4Qjl5RYhSMZz0gn5/NAwGvBAS/SVLYU8eCCpBdMX44mghRx0NtB3OX0ab2EoSx3A+7/UHJMTBlCU3mCdWbAomQ4m0JdoIKoFunvjqH5278Z+waUSrSAzzCER2ticeQSWIr0lb4fehTPSkkH94CH8Ojs0kiRhSNMp34SCoBHx9VSLzEgOnZUsIY8iyxCYf7GqRxjHsD+hGB/1hf1K2CwJBJeAYYv0f3pINATHkR1vW6WCMA0z0J6U3H04phjzgrhQIKgFHazb7JtoOPzBEDGWvbBGvtO0kxXXoBkElkCioej8ceG45hlTIEcpN0PY72EzRdAxV7TWK76NTp9CkNyrV5MJWmsZiyE08/ROu98StoXVksxObaRqL4aezb7iDAS5G2p8h8eeOsmCMO4IN3mWCo4JNBRdzs/8OR0TqMINGY2i/dpRjg+wINhxDnn4gdfVEDPmQrFcCzcZQaY+XFNIwYihpCCcksNJwDMc3OQamGfUYyt6rcNhpOoaIxEybcCeKIT/DRM5bH4khPuCvCoJyoeIRN41VDFV+SYgrA4lhv+L3egBBuUFcmFtPLv8XrSM2N37hXa7YSXxGVTEQVBapEkVw9hnqSAyrvk4ZqVcICCoHeWo13oN/Huouy4XKc0a19hBUEX57i+L2eWp66SzUXa727e0A8kVQRUnk2HnUelJ4NSwCQRWlSgzPVHxZMWjNhlV5rF5mIaiiVInhvK9eZZcF8kVQRakSw/BL6YogqKJU0qFcqDIIqiht6hAgqKL4GFpAUEXxMdTB0E8EVRRnDONRkTqLjmEgyx/xtQ4PeMXr8QavpG1gjeHGBn93v7O7txcEPFNoPMXogu9yoBZoCsZb/LE/z9XPcTRJxzA4oHRQDHclhmM+LxnDpR9L7GNo4mNoAUEVpYMY4lOXovwlfgvyL3KNejFsAx/D+iwqhjLCbRCu2lqOgJtz0xG/dwX65xQLi+GUojYIhnO5XDmCXjDh8V3BfCqdLZ8Zn6Qs0oZ0pf6cTAGvwgT93iSYznmkoSWGy8lSLuLgWQuiMRLyJMkTX/178QUSzOcDfoFN0ZnStnhx3yNvjXh0QvdMKIYyAGE47dEmIdFaohh6PB7PqsKZalTX9ZSEyqY+l+hUH+/LPDPBcBStOOgpwqQ3JBOy5ejXm9BTDqPhRlXCcOGBaMx0q8TXx/vdVYDnm9LMyLVqHkTfm097w2H55n9douuPyITz9q+fhasjI21CFkIwnA+DYb/9FETX546sSd712+2dcV1tpXtglsOEK403YW28CWvjTVibDk2I15oNUfLlaknUu1iFN2ElvAlr401YG2/C2ngT1qY7ExogNg3Rlgm5ed+ZEREbJ+l1mdI+biqbkAeTmuzgV0NTYYcWTJpQRoryaNggGB/yANdd+hfwuvpkOV4on3fI/4XIMSEHw5fggbS8kFXAl5D/D8YHB+Ik28kIW9q9K8NhNZb1QabIj9Wg28NduvVswkNKFvmS394WW3J8KIkvQAET8h/6j2VHPxvqnkksxBls7fEOjtNucqpV3YQdgtg0RHvFSYcgNg2xpiY8Y6zFjNg0xJqacBToM08iNg1w/gN9Il7hKJ7EZxF0ZcL+mb7+Rg6xWSibvFqzm5xVk4vTkQkHw36/r32IiNgsDJ6spQDhrCW1iE3I7/xbfFX6e+9YG3uJ2CyGcOlocOeqkRe+fQH+oPBM4C40Ex5v15oXtyTh598KxGYBhFOCMT9gbiZLcfKdlkO65p4sSGzCi71emyZ8jG+rFYhNXdQEH4I+jZ+jRP4NhxL6XDlliU1IuXubz/F8PtemgEBs6iFTfAvvwwe4KzXRKvIFJtZwoRUng4orjVci8U07YlOHyBrvwiMms16YmgywLJoJuwSxqQFPqMzY5vLINKGaBZeBsyyxCY/VvH/dgNhUB1YIZ2o0+bfLT9658M1tZ4aHKR9nb8BdjtiElLvrTa52QWyqEtoAzog3Ui2T2SfW6Zh4hnXCMQ1qNmvxIIeLgcAJQrumsVgKlcXMCcMcxCZst0ROgNhURCVfn0N0PD6lPENu/YINhXks80TtyJ7TzIphwjbrhSaITTVU4s1VP5Qf+XIGGBcn98NSZ/YDfCIuKf/EzHYF0B7k7Xorn9QCsamESrrxFD+CH+Y8NUtk7EtlnJ/avXNZ/bwQ05nCJWBtpOhpTVRqwkwyWbAo38w1bGysvglVwvU87JbyiqsoqXohHuf7cIYoX21yxUKsvAnTIkRDWdNYumoNG8IVwrNGp33zWHkTqlTrlRHl8zVcTNqE4ZpycIUoz7x1xxKsiQnhYNSCZ4ZxLCa0P7SY6RiugqyfCdWiSLkmfJo+jFCeOfPJJlh1E6IGDReDdRXhEmwmhLUS1UDlqa8/ls/6qdDik2HCRFtPvTNwrGniwGFC8ysf26oNiwWxqYCk2bCE8tFbH1YTqkI5YS212Em0CkEhbCYki/G3eyNqNI/od0oeVRaecGG7IYhNBdC2hYvhtZCYOEcrrkLlWf9BDk0Y8AxKw2EpE/JhE/rXlxlJyKVuwYBncQrmdFvYRQGroyMQmyqoVOvCiXoYfoFHhgnvwQWUZ7l+w4XnhWQ7ZUL+/o9uxoD+TXpzcc/le84Fm/CBSrahnLAfOgY7YtDKgyvE6plDEROiJzZ6APM+h6yAjA8tyN/hN+QfVLr/J5yK/6s8Q/4a3jH/Vfz/Bi7wB/GcwVWQf0UadOYsl2lfBESPMv/lfyyugJ5IMiEZ1ZajVQc3tBDh2i4RmEw+2Qd4W+uyhlfM98o/UQNUniX7DK15IT1oAT2KnB0OewGZDSYcBQM24YCyNZcS5Qklu/M/srg8yQVAbArBqTTfnv8kKXc/gOm8EJXHRNGLYSRwFWXheWEQTAKYkO3stLUJYlME6MdMKPzU6kgpUiaEPpOrHijfh3AVJduEYfoX+9RaQGyKEA+J0Zbiit6BwmmSMKGq/KVflEDMcBXGZkJeTiTg/LBPjzNZr8+PZI9k1RyITRFUOhVarhU+zLaee8OEUdc/3DHK27k4lgu3Clud0wWxKYJKaIiW4HhAUvINXWxCXsZOkX6pjJ5auIqz8LywGohNEVRCYzR76aPirqjFRwUy4Ste7DPG0hfzlXNPDitnwnsqpUK69oHOwmysjyrGNF2HswQrZ8J3VVIVyZcfQvj6zk7yIQe85j7xFM4yrJwJZ0fyqKkUx+tMJkkMZSUefoddNnBMlcEMK5gXgjBvK5LqVL0wwTcIyyrqXFbWhHG5kt8eyzZhWFcvXxYrVtiE8UBf5+MMskwYfVlR+WOUVTYhlu0UMltlThPGOWalXFCx2iY0B3C95arTWU34Ac5iHMv8F2PVTUjELQ7BUi9JmHDTrGaXe1OSJjZhy5/umCA2VcG7Y50rl9S62wxM+Cpd0ynbN2gjNuFj+a89jDY4YlOHe1H/QVEWYD4mNuHg5cs2BxiOjA8nEJv6fFTIkLdihdYnMmH/Yr//EtttQCJs8DPG8YcYcGnyZlYLpSqxCkdnLnY3zBWxaYisemF9YhMm30s2DOW7TarQoC0Ttsy2sW4rYtMQbZmQKjTt1WlGx4/7epmM2DREWyacz+fb1Rb0rULitQJi0xBrqcL1NOGZ+ajVqrUBYtMQbZlwu+Bb80ZAbBqiLRN2CmLTEN6EtVlXE/4FfgXEpiHW1ISf6ctJJE0o0+FZkMWzIzbG40PLlIxpiphwN9CD4ssY8z8ebjlj1ZUJPztrLMmB2ISwqcRcG5QQmauQow8/NcegbGyMd/YOx1uHcpKbAiYU82zQD/+vpi7kWRN5rXP2G2/t0VUOxofiY9KRCdmCug0RmxC20A79z/8pE/J0j+E/SSL5yvSMB2S/dLJMCppQ5phkE8qlSeA82yNmndzao4vYZ53UTdjuSiN+RuHaeBPWxpuwNt6EtfEmrI03YW3avVpLeBPWxpuwNt6EtVkyEwb8Yla+oRrQdj+Y82bz/cLDIb8BmU4C/mqOrtmni/b548MYap5iK0m7JvxHaSaniZqZbKw+f0pJ0Q8oYfz9JH9mrvY2BptwxJ/88oe/c4oEf8U0jT4l/AtE087f46jlotBnkIsn65s5two9Ho/Hs/LwSuQJ9BoQxk/YKkVcCHsIqkJyxYeK0iDo87QIE64L8Xr5MhfCnNy8j/9J7WiultLv8xr0fLhHSAzV8Xg8Ho/H4/GcdOQrmsa7Z9cVmdqJ8RasCDXiJqRBeVnQm4yG3NntjVkGZUF+yzIf8kuPORnSt3/LwE/xdCjS8xpcCF5/Hk9r/IhfIQjkJThvccdo69D1MWl0/PJ46Tn7q27DOcWdCgBOCNmSytSWGQ5xfVWut/ylezXOntVtKP3OXLFjDcp0qO0i71H4+qzBYLleq6gREw7+hINEgx1bUF3ftCCimULt7RiKh6nBaUB1O36E6L9unmK+/io9xUY+6CmPt5/H4/F4PB6Px1OWf/lzk5zFb0MgDd3yZ3w32QzNfus5Rhq6xVuwLt6CdfEWrIu3YF28BeviLVgXb8G6eAvWxVuwLt6CdVkPC3b5yng9LChzLbY7MWHEmjzF3Ukw34LpeVjzZhTVqGzB9JSbtkk4kQaCRNiRBJMWPNwbb2ETk3nujPUJZ8lvF5tFyLHgFq6VvicbxmW2Dsd72DRAGpjuBs4kLLjBMQ14itRgJ5CNnfHOBv3y5kGwFYz3gh1y5E3LCgpYkELaPQx2+QL0c8DXof836F8QBHvKubfFfvK/AdLAfNaVBFNP8W5wSJrjmWZFg7tsQTU58Aanl9N2uMfTzRYiz4JBcMB2odDoCrvqh/7yfMBkWb5NMuPt3hbilDAh0tAt6XyQ9cV3XazF0ZaIH0gCxc2T925Zn6oURZ7ig102GltLWXCH7xFbkPbyDRQLcpxWw4KUiJ29HTEd/cc/B+MdViBPWo1pq/nf4iy4t7O1RfdrT6kvtCBPhE1RYAuS196WxGlVNLhIcixYF6ShW7wF6+ItWIFjbTk2b8EKjObH2phkb8HyvObR8RFNW/DVNw9vzGazG3c+aGBtSqShdaaBtg5mgxZ8/rNa1zNm/z3sWhBIQ9v0e70z2CSasmBiFemYRzhgESANLfPyYr9/EdtEIxa8CmvZ2a+8Sn4SpKFbGrDgESyVwWUcWhOkodebDyaDrIlcF0r/Zb+vfZ+0cAu+BSPlcB2H1wJp4O+v+F9b0L1qzoKWdd0/+fLJkycX0qXKfZxSA6SBLXisLzrcMGTBpmozt2GdkC//iB2Kqx/DX/EFvKuDNFAj4bVeOjbORP/IcJEW5IpfxMe8rHuqRv18H7uFTfhWBWkghq1OhdFQPngPZhG+UX62NomeUdbMDZEGeoof8+LhLXGx35s3YcHPYRTmNvwcrbpHOIz4Cl7VQBp6wwGB7Rb43fhWd1EWvAKTEJH93O3i2Nyfw6cSSAOZUD6Hbgk9EyQWZEHYg8Dzq3D2LLyNo2ezc/CpAtJAFtxOpqtB+nMC28RiLAhrzGZX4AGcFtTq3TVMiDQQwxYf4iY0GBWwybZGhgXjqk/1ThukgeC5VV5ju2le4hcswoLXYIp07STLguO7OKt6pQZp6JYFWDBshySeYCbTguPzOHEGd2mQBlUYH3cxrxBR34KhlCwGzLHg+DROrdrjhTQQr4OO7LcIC8IK+3Aa5FhwfB0nV3yOkYYet4nbq1EnqG3Bd2EEOE3+ePv9L7/44LK7Q/BTdbLV/PkgDS3XBxPUtqAywew0nDE/Gd0xRw4rYrdWCy8B0kDmo6J4u62yOEFdC36iLHAJzghLN9eH2GVwCjvhLAfS0C01LXjfboBX8E5wFbt1oNSncJYCaej1jieDSVdT7NW0IOrS38MJnK+ZXuAAHeyCqxRIwyrng5BgoiC4o3yt/IZjYtBTY33Gc0AaiJWtzSAXPA+nImqiCDcS9kybEDvgKgPSILWZFbWgSvsNuBRxz9W798P64N034UUknvhIhBWKY6SBGLTay29Qy4JfqbQb74w+UH6qeNZq1O/BO6lYQnlXqBMiDUxn2WA9C6qkG89fWDtRZjXaJNF7JrgjUPOBqwRIQ7fUseAbKuU34RSUV9hOM1t1Ye/+O3BHKO/yHYVIQ7fUseAtlXK4BLTSwic10S4OTZhsBr9Q3nAVB2noljoWVOl+Cy4mrGDfhTthwfEXavctOEMeKO+34SwM0tAtNSyIdx26oCCmqIGRtGD4kCdFqHyP4CoM0tAtNSz4jko3XILyiUvVlAXRmXgNzhC8NIGrMEhDt9SwoEq1PnYDrblYYSkLhipNiNAi5yIgDd1S24I/wcUoH63xm7Ygcko982SUb6qHJwekoVtqWxAOQfnwgBmQtqCj3LUU6wVAGrqlugVvphKNoatwMRYLIifUzMw8V75wFQVp6JbqFkSmBxejKoN668xiQQj1Y7hClG/JjBBp6JbqFlT20gsS8TAGE9ksiLFbcIUoz2dwFQRp6JbqFlSjBS/AxYiH0cdis+CmOgyuENVo/hmugiAN3VLdgpLk2RO4GOVzCi7GZkEcZrSmowYfXAVBGrqlrgX1kTLKR38pl2HBxBhgvDmGqyBIQ7fUteC3cDHKJ+8ptrVlojo1XAVBGrqlugVVxe5duBjxMN66WS14WR0HV4jVMwekoVuqW1C1ZfUxqOqtyR24GKsFv5fDmrPg3FzRqekvdapb8JIkWa/9oYMfLsZqQfsDa/XMAWnQSdtreS2YfhjRzQcXY7Wg3VhWzxyQBh2yF68TOuUtXm9v0JtMmjVidQti9B9cgvL5BS6iIwuy6QI2I79FngQLfA9luRfVLYg065+EYARD/MKjk6dYNDjvjdiC5C6uQe0TB8I6imSxFlT2+gQuBmVE3IFqtSA+3YEL/GbzzANpsFDpEyc2z7TXpwefR5sP+M+IV8zrD+dqBWHaM0hZtoYFn6YTHX1VAmVaLZjuwiE+tHnmgTQsCrIgL7Y8IBWPOAdVFhwOB4MgmJMFkSUkRkfUsCAauHq7Ds+i8MvPRxf+3dNE443BmE24gHpnbBtJnAHSsCj4KRYNUrbJC3+TBTkHUOs1sgbJtVANhuaCS8DDqJEemqme/sTbYVU/fwhXQZCGTJC5hR+BVChTzOwxRR0Loj5jiDAcXB4Bfw3lnxCn8iz57TvSYMCLVPJalfyNCf0/6I/4WxOWEqko6M2DwXCx47x4+s2i/BV+I1SyZ3CB/wVfAF8Nq7/yTF0hG6RBh61GORXl+ZyLkXz6I3JSdqZW5Kcymv4WLJuLUUaDt5N9yE9UuhPdLM+UryI9nugbtQMuYO80zANp0IksyJ8AmxZk2wWUo3VoQTJN4tN+le6krz6GNTVGBuckygx7b0MeSIMBP6wTKUjlKZ6EFmQn+fWCvvMpHshzHgT0O6HMYB4UyjTLWJDLS3MAZTgtCpwa9967cHR049/PnsMdgTdNH8EJ1HCQsgPgkIZFwYblejj9I5XOpVaYTxkLSt+LOYBSEj6bfQlnEkt9EGfAFaI89VcGRUAaFsWoNx82a0GVTL1PNRpq5Bg0lLYgxgp+CmeI8k28As0FaXAwl5pbiTxvEAzpKVYWpI0GnmKVTPMruHB4L5wJUhb8CYcniqRKbbpcC6qfSsVGiZMqWNAcsgG/5FgiRdKCYW0xOdgy/e65EEiDDj969AxSgcAapLKE50KS3q6mqGJBozchHPabLnSJhAWdn8Mq35ItEqsFufbMjVsqjcmCZD22IGdujVHJgobiwqqL7RNX04Lo1krXfhBy2WzQrkEymtRaeiOlQcoNl0WDqPUKer0jnCPAMoDSsOB3OM4si5ivlT9cxUEaLJDp2qKEBcPePwU8GfiYL9sF3YLRJyXpOovyL9kxQyAN3VLCgt+qhIbExWncm3AjUcbGFowmVbDNMKN2lJ8ACWnolhIWTH7wGn9Zo/VpfWw0WkILvhc+6VYDVhrxwSAN3VLCgskPDrU3Ska3oNZAIQtuvo/RlQpbs0PtKf8Qr5wFVUJD3oevQi9liKPLD06dOvXRO38Dd4TtSUUPT+p7u3yQhm6pZsGf00Mltf4YN6lP6hjsg6sMSEO3VNQgvHQ2MULaTXL4uQIvrFJVnAIgDd1S0YJaHhhzOi4vLNxK61bAbrhKgTR0SzkL/nA6THCifw9sat8RG1yxH0/gi89Kk/YgDd1SxoJihfDrwvQ7OMX32kyEihdPrNmfImyowFkOpKFbSlgQhBZyPJTEqUeYkfXKHz50GRqEfQ334C4H0tAt5S0Y5YdwZmG0i20gqOS3EQVBGrqlggXDyWQKVIHzLBh+9g5nWZCGbqlgwSgrzH8xlGPBMEOwDA0pBNLQLVUsGE/n4c4LFdkWDCs/pXtWQ5CGbqlkwXhKmZxlHrIsGPXWVGgQA6ShW6pZMJKPo50RkmHBcNa9ypkggTR0S0ULxia0TGIU47TgG/H58KkC0tAtVS2oTeH9wl3nc1jwftyELjtMwQBp6JbKFjS6C12FqdWCd7WJuWyTwRUHaeiW6hYMO1UUP1tHLVgsiKFbikqzDsYgDT2ZA7PFl0sGNSwYDfkAP6dzxKQFr5uN5tRbz5IgDTw8oc01ckzqWNCypNAjM0/ULfgq+Z6lxnTyAGlYZQuON83JBoVPP4wq2rDg+W8xUaFGct6jKiANMv9gZ9S0INnQeJEUc3Tp8uXLf/3knL3nehGrNOklye8vrR/QNMTCVz79EmYpzFFea7AgSANxcdjiXMpNrHx6N5zzrQglp6PIAGkgUeC3HRpa+fQ8Pl3P4WscvhCQht52/0y/zVlEm1v59HnWLMDUhq7WE+0GaZDBli0Wxf1mVz59dSn1ooR48TTjXUllkAYiaFGDbax8Ot68eelz1Xdw41zeq5IaIA0EL51kTg7QGs1YMMTaLl4cSANlhG0WJU2vfGrQmgUpTe0tdjWRrDBkPSzYLmTBJmozVlqz4Ou5lrc3TmMrn6Zpy4Lt1maaWvnUxlo+xU2tfGqlLQse8zqQrXXQNLPyqZ3WNDgxHqxmSVzI54OlaWTlUxdrmQ+upQZbrc00sPKpmxaf4tVdMzGT1jQ4DRLKaA+fD9bFW7Au3oJ18Rasi7dgXbwF6+ItWBdvwQp89hk2GG/BChjz9iUsuLWFjQRbezt72GR2x+MAm5kUsmCgB7XHETDCJgddzgrS0DafnT2ridBuwUP5q7Gl2684RSx4gF+FWLAoSEPbmJNHpiy4tbe3wxbcoDu/wwmiFB6SLxuV5LDDu2VnIP+yKWBBCo1FdkD/SOYbdJ1Arsy6O+C/6jrsmQJpaBmSoC5CiwUprofjw4AeLrEgxT7YEQuSvYLgcIMO2yDXAblN/aQpbsHxAd+pcUAX3KV/O3LZXXXbOBqB7TFAGlqGDaiJ0GVBeZyVBSmNYkH6PRjvHbLVNmg3q3ABFpQwWNyRBZUGA7riLsciIMUf7i2RBRPYLUj62wg2YEHW4Dig1JEvaVB2jg9YkAuxIIc3Dvg5FguyK9IgxeIwGO/x9VfFggumkAWrgzR0i7dgXbwF6+ItWBdvwbp4C9bFW7Au3oJ18Rasi7dgXbwF6/Ivf26Sv8RvQyANHo/H4/F4PJ7FMgyi9cj6soBWwAtXNk88b9FIlscYztPzGP2I3+WG7dXvTfsBL/457wX9YMgLOTb+9SnZa8rG4yX7gh5dlReeMmaD+vFX2zqJywdHnG5/n0xJFqQUsAZ5OdqGCXjNzWGPbhZZkC5JFuRHIPp+g+xnXWmyfdQr4zTYLRocTXUL9tqxIP0v6y9HFmRJRhb8E6JpBwctB6TBvjy8vIw3bUzpWaLNFjRI4h/Ic9tXTzGvuxw/xcujwYK09qlfAl6sysGq5IPLzGqUxR6Px+PxeDwevVtFbcaTO6R2eabpBp8+9UbSghreggL3ofC/Cf3rU8N2MB+yBgf8h5cODmRywDn3EvQG9IePHPV5Ry8YjoZW054sptz9QP9PuG+ADMeT58yDeRAMuIts1AvIPaH9w2E/mEzJgsMgmIipe4E5E91JhUzQZ62xBkllPKUNy0/UJstZQ4PcWTahB56tLGL1GtTwGZrH4/F4PB6Px+PxeDwej8fjWUYmPKyOXzFE73P092AeT/NM+OXDkFQ4HfUGJEd5B8FvJvgFTm/ECpVhp9H4e49nwYgG+Q0iaZAgAdJ/w2Aom33aST8DlqM60ONZOFo+OFSZoK5BKp+9Bj0NE9cHVVlMJW9/GpXFvJdcviz2dAVXB7WVvzwej6dF4jX6TmYhGKffMgbYU5ezv37m/oSQWgBpVJP1RCCtoSTcNPIsEvnq3KXDSIP0+I+kKkaNVdEg5wzcV7LeRBqM0k+JFw3yIHNjdWlPdUSDjE2HSoPUKg0myP6gwTnfHGsusVaoFOrphwa540iM4bFQdnYDKDBDg9wfN5n0BmE+KNnfCcoHjfSTBiX7W0A+uL7zUFTSYFad0NMQXoMhXn9d4TXo6RqvQU/XeA16usZr0NM1XoOervEa9HSN16Cna7wGPV3jNejpmhOowWaXXGyWsw2v6NgortUOvQZXCq/BlcJrcNnwGozwGuwIr8EIr8GO8BqM8BrsCK/BCK/BjvAajPAa7AivwQivwY7wGozwGuwIr8EIr8GO8BqM8BrsiJOnQSdegx2R1uCPv8oXtcyvJ+qjRq/BjrDkg5EIT5YEvQa7wlYWQ4QnTIJ5GtwJiC04IvaCHWyNx7u0GRzAkWArOOSf3UBcC6eeBrc4aUGwB2chNiihuxtwJEBiNwqGaK0PighPmgRzNLjhsLcGa7Aj6mrQfLYOCzwprMEFYW+TkAhPnARzNCh5Bd0qyfg4A9hRT7l65MWHNah0GOaOnCtu7CqfLZU9sBf/uvKQaixIgxSpA4qu0uCeRHcHroM4yZIk1iB0iLyfU3SAM7diO7FFlA1c2DXY+/FPJ06CReqDwS7sHhyyndUW/c8oa4sG+T7STSB2wzyFD5d9vMHnbJUr+nJYVD64Iw+PivOGJCtMAWtQpZB992IN7shuOTZMFKcxtJOcExrLjkODJ5ECGiRxib74poVZ3aFs8Z0INSh7JBehg3F/5bbwbTyk27S0GqTIcaYG1SHzMjW4K/tjDbJbJZlMIIlWiY3s5DVYgmwNSpOExcWPvNidfQ70fHCLnGRxcfH9IPhGcH6isk324iCWT4PCjtQPDihinLQ9lYLDhAbDfHAv2GANiouc8iNnUzhKcrTFdvIaLEGBfHBpqafBjvEajPAa7AivwQivwY44aRp8SbWU6TYcJl6DHXHCNNh/zH/PWKeL9xrsiBOmwccXR/P56zNwmaysBu9f/+AP/+/jmZ0Xb733/SYOXFJOmAa3j/nv77KdZOU0uHn7ydE+pJbLL1/eXFYpnrSyWErh1S+L7z65AW2V49P37yOEJeJEaXA+EEaSGaZYEQ0+eOQqdovy+dXlyhEtGpxzlzdTb5Wd5WP0+nikVGhdwmsFNPjqC8ioNrcuL48ObRok7YX/rxsqB7SvorbkGnz1FuSzMD5/gKA75oRpUNUH1d8kS6zB85fy2h7/7cLTj74/jcND7v90+d1PcICdax/h0C6xaHBb+tB66u+asX1xMhhM7UsZLqsGz1+CYGz88Og6tzKy+wc3v3v0C45P8/F1HNUZ1jbJ7/2XwclbB3kpNbjpFOD+m1rTokgf9f1vf8CpSX7otlC2aXBw8eXw5Wt743GVGf3eG0wHZyaD6YqUxZtfOYrgo+9xREjh9ySnHlmD3H8f+7vAosHj9VMfeMw1wdej3mpo8IG9C/DoNvbrlHpXd/eCTYfnOmsopzS43e9fPNPv98+8hMfaMf99FfoHn9l08rNNf0zp98UfWjoZP+9IhZZ8ULWH17dV7GKZNPgMstA5egM7LZTWIHE9LcNu8kJbfXAUnKG8cA1L5D4634MlL4stCjw6hX12qmiQ6ptPU5ntE+xqE5sGe3NgfZ2wwqxGPvjTFegh4ugudjmppkHiwTVcI+RaspOxeSwa3J6ubaMkk+XQ4PlkB8r+h9iTRWUNjsf3P8eFQj7AjtawaZBaJMTLYf9k9REuhQavQgghV5K9MHZqaHA8Pp14l3LjPHa0hLUsPpksgwYTYxIKKrCmBsfj317ggor9e/BvB5sGz7yez0cX1/JdXRbda/B0oiZYvOO4pgbH40e4JGi1aWLR4Pr2zWTTuQZfma3Uh/DOYfPes3Opt8GfPLpZskA9ZWaFb8G7DXxZHNG1Bm/i9oOb8HZz+iv3SATFUZnxCGY94FP4toBFg8eqY2a797v9G8h1pWMNfoubr7iWk41tPrG+97Vw7UnR4fvv4wzFL631V9vywflEtYztn/6sLd1q8APcekV2LmTpW87mrdwORuEVDle8aOvTE18fjOhUg+YQrXPwtXI+2aFXiDeL9D2/YWj7Wks5oS0fPFlFcESXGjSLwa/ha+O37IHRGVz7DUFkYLbMb7UjQpsGfd9M2zzHTVdkjK9/267AW3/4z9+dgmBOP7j5yKHTa/n9fveN5vEd+DaLrSyWaQge+7K4Nd7ALVd8A980m+dwSMyND0V6lv7B32zfoFzJzQtPG2dlVgoWhbUsngZBsLbDB510psFNI+/5Er5pruOIiFtRvuboo76b/hbvAnY5MeuE7gdicdg0eELpTIN3cL+FL+CZYvNTHBHyltZ9435P8nYy73zxNva4+AkHKlyjZheI12BEVxp8irst3IJniu9xQIg53DTzXV3iPdzsO/i7+BDHCfvND2DwGozoSINGp9y+q0/O7MGefZJQRs774oQKL8PbhdFR9CY8m8NrMKIjDRpFrOvdmimi/VROlqPB8WlzqOq38HbxM44TioxfrIXXYEQ3GvwId1p4B55JzMH9R/DVyNPgeGxWC5/B18FdHKYo9pKlOl6DEd1oUP+wyFX3MhvEtnFV+RocP8HpipzBWUaVsOnS2GswohMNGvJy5E6bxssL60EFNJgQYc6IGmMQTV4jpiZegxGdaPBN3GZm3/Fq7F3sF+zv8Ypo0BThfnYXjdFt7mysLwavwYguNPg27rLwLjwTnMJuwSGHQho0RZjzHs5oG+c1pOvhNRjRhQaNvkHHxyNGm9jxxreYBs0S9hE87Wzqr0uafW/sNRjRhQaPcJOZH+CXRK8Nfg6/JAU1eN54D/cKvna+wlFCox85eQ1GdKFBfVojx5tc4wWJa0hNQQ2aTaDsV8dG/0zuW+Y6eA1GdKFBvevY0V1idCC6hr0U1eDYGMSQPVBaby5dg18jeA1GdKFB3GLB8T7iMnYLrllnCmvQGKmYNVY20THe5CyZXoMRHWjQaPI6ytnb2C3Un/vtFkJiXsDPjvEiO+fFSi28BiM60OAm7rDgKIsfYLdwFZ5JimvQyN2yJ/PSG0NNTkLjNRjRRVms50qOz8oNnbrGNRfXYKFsVVGgwbQQvAYjutCgPpLgBvyS6M2IK/BLUlyDRvGfPX5GH1tbcNKHShTU4ESWU5gHGTMSqkNWmC40aLy5cMyzakzF9RSeCYpr0GgGfQU/O3rnpWWszsIoqUH6w/OYjnoT+jvsjdjBuuRfOoR8p3zgStKFBo2S0fGuzvzcxD4FSAkN6iXsJfjZWbKyONLgiGU4HbFrNOX/esNAaZMO4Tl2h1l55VLThQbN0aKOYQRGD+HsHdvIhor5YPYIrgKdlwuhtAY5n5uOuFSONDiUMroZDXJ+K4pPUXyGThX5XDrRoJERut7gvoP94GFaqxXrg5ljEYzG0HvwbIKiGuTCdsr5nazqORePSIOkSnI2UBZLrsuogAd8bXLR1SYywbn8GXK2PJnIgzCYUHw4fohmVEvgUyUkN51o0Kh0OdupqeU6LyVecRTXYPF28Xc4SGjy87qCGowJ720rhCvLIYMd9OkZIOWLmiQflD9Kgz3eO+0N+CEI5qrqSjk0/dA+qT3kxLsbDd7DTRacg/rMuUCEO09ux917xTVohJTZP2i0l5r8uq60BltlgLxL16B4kdImkQb7SoPk6A9FiYTSIElR1RKWV4PmQD3nXFeJj5Ls5E9ZaHa4uEbqKPSq6ifwa4RFaVCyn4jJwiYK4cKWdIayWGmQ6wGkKc6QVaUQNQERo5TF/VCD0b6lLYsTzRL3hGuncic7+hhHZmG8gMucRMGoOGaPNaxJS/mgyr0aZZQrshzOdsRf/Q/caOF//xHeaf75b3GMg3/CcVn8E44V/hmeVv4OBwn/Bs9G+FfcgBxUCcfVs+lACkD6GVE5x1UzKefoAG6gSJHY5x/eQ558IuWKosEh5V7DnAKxQ5rKB0/l5SLmXFf7WUNL3zAyzQTZY1KFu/og1ux3H/o6KY0WxUXzQVGOtAVITaxB0hbJkOtg0lsTahD/kwbVulyiQTpFNCglNHssJ01pkN9zvJlZpzdF6ByYoLibnnxLUWTAvbEAT2b10Si0m+wdLKxBVcHT8kHWHPJB6b9LaZC3lD8LULK/E5oPqll+P8maB3VTH7tQ4KXE/cvvpNfDLjBFliHf7HndjKH8BWbPrMFyt4shZHkGeDsu6nuTKWmb+wEX1iXelAbDHsBrP8HDhjm/b+mVks6e3Xzl+DJU4wKCF1wf1AN94FbDU2EutwalqiltWtUfjv9Zg7Svzz+yvRCa0mBc0O5nlLLGR8TFulk0ivQPnjcb1tmfKRnDDBte5H25NSg9PlyXJOElNEi7ViMfNPo4Mt55JVaqK7dITQENGtN3ZE44zOjdkdnDretTR4MkgahbkPKkxeVIeTRzpYY0mFwF0blO9SljSo/ZftG16phcDf6W6OPOmb7DmGquyXfFTFENTrjjd8QNCh6wQNAWa1CaHKqzmLuOh0U6g5eUhjT4Ne5kzOeumpjx7rjU2v45GjyfmMN1P3sQv15/oIOLR6MaBTXIbV/WW5/fOaiOFhkmQ34qU2IN8kaRl2JLSkMaTI03IG45GprGN3RE9hhTjUwNphY0yS3njeem6WywsAahqumE9OfQ4MBr0IY+uVuMY1XYt5Mr0FlHC6bJ0GBqQZP9rPa5YPQNNl0bLFUWB3POCXvBQMpizhjDUQTk4j7DKfv6stjEbJJoONZnT0z6O5t9nN1lrXBq8JkxuweT/VGxYPRWlll2sRpV2iSSD64fzWgw2STRsb7DO59+Hbf/JC83tGvwu/S6ng8L5KtGSeyaGnaBVNHgmtKMBs2ZJ5Po6ztEnLKN07p1OUs9aQ2+8SiVA2a0hnSMkvhK0w0SwmswohkNPsTNdGF9h5fsSQn52SVETYNvX33XsaxxIQUmFmpqviT2GtRoRoOZY0/3zz13iOq0e3HOT776LnXS2f/w6uoHR2YHY4KCzVtz/EQLJbHXoEYjGnQ2ST6+lNc8vWyOpqnFD0XnLNo0mvE/w7dZvAYjGtFgao05xZ1i1ayb5niailzJW44kZtPIthuehzrEazCiEQ26miT7RT9UO21bfrMEt8qMflieNbRPKI1oMJpIcv8tY+7pUsuynv7K3tGdw/5bJVsU5msa57pli8ZrMKIRDXIT9cqXapyUuVL27EW5kaF338v9qClk/84HtyvkYcbwwtmVrEG3C8VrMKIJDb79tT46YNNYJXY2+7RQZ4nO+etfupV45dNLl6vPl3rXbMEXrLEuAq/BiEbywQTm1DF5kw5lsPnq9neXmau3v6cMK+N9cUES84m4V/JePF6DEW1ocHw+0dLNGlpdgroa/C7R8MkZ4bpYvAYjWtFgelDClUWosJ4G7yU60q84ZkJsCK/BiJY0ON5MfZxZf8LxOhq8mXy9UmBkzULxGoxoS4Pj8elUu+IoewXDXKprMDW461ZbXTIRXoMR7WlwPP4+9Wq3xMsMCxU1eD3d79hqTVDhNRjRpgYTH08qfnmOfeWposF7lheBTS5D4sRrMKJdDY7HVy0v4fYvVSuUy2rwtG104X6zS8Q68RqMaFuDVCJbX8HtXyjf0VxGg5vPrOPJFtRLVAGvwYj2NTgen090DUdc+6qUEItq8PmblvyPObqLIzrAazCiCw0Stx2jnon9o2cFpZGvwc3r7zjkN5vdKPM5/eKxaHA+HQwm/D9/RXeC6EiDxNXs0arXLlzOGz+QpcHf3n+YNcD6imO90PawaZC/18T/J4nuNEjcTgxnsHHj3LOfHCMJLBq8f/PrLzIH9zOfN7pAe0EcGjze7vW2X8LjhNCpBonNJ0VHCe7feee9qw90OUKDb9/76Ok7P2d+whLz4ll7Q2MysWjwuP/6uLd95jWcJ4auNShcd3/LtEh+edra6MB8rG2S4ZlgXfPAl0EQTCmTt7AUGmQ2rz50Nh/qc+XL6mMMm8FWFl98TH8fr2U+2Oek9c5Y58NZGg0q7r7/xaKVeOvrAtOmt09Kg8MBWMl5i/J4fHE0n78+A5fJkmlQsXnv6VF9Kb44923ebG8dYskHhzKv5Xq2ireP+e/vsp1kKTUYcv75k4elvzfev3Ppo3aHAlbCpsGA6kvHPJHW+tGX3H0lymIXD65+9TDrs+Mrd8598CGP718Z7G2SwUDqTevGXNUyRpIZplgRDZpsnhL+zx/hXkVsGjzD8wsya9YsGb0+HikVWudRX0kNgqLvi5cSaz64vqgc0N7c8hrsCFt9UOUVo+PXsjrIWqHqg+pvEq/BjrDlg8evg0CtTrN2bF+cDAbhytwJvAY7wqLBbek+W88+6iy8BjvCVhaLBufr1zcz+r03mA7OTAZTXxYvExYNyrT7QdDfXrd2ce8x1wSplus1uFTY6oNrzvz3NeofBOumweOA6u08knrtmiX29nCI12BH2OqDa/u+WK0tT/iyeJmwlcVr2zfj88GlxKLBbckHR75vZoVYu3xwOjjuzc+sZyd1Bl6DHWHTIGWFc3vTca3xGuwIuwZPJF6DHeE1GOE12BFegxFegx3hNRjhNdgRXoMRXoMd4TUY4TXYESdOgz/+6UdsJfEa7IiTpsEffz37q0OEi9XgVrCHLTeHu9ioTRsa3Au2sJXL7iE2CnHCNEgSPOsSYbYGt/Q7EOTbmDW449Lhhohvo9SdymRBGtwLdujvjl1rkQYPAvWb5lAO2Sr5aJ0sDYoEXSLM1+AWj7nhu8S/ZO0N+iHXLv0c7rHfAbkO6JeOYQ0eBuoUkiwfKpKj393xwQYOpJ9DdUA9FqNB7Tmj+LKSOI7BFieQNciQ5w7tYS8+gNMnkuMjtyTz5+NCI3E6czlRGoQEHSIsokEyMetHNAODb4132eKSS/DdYWg/NEgc8nEEH3GgDqAw1P3ePVAHbbB6a7AYDUYZnIoyKYkTu8ep3QlUCjlpokE8ZkyUGvHZYN1xAHyaskAOJ0mDkQTtIiyoQb4DosHIvrEGyUuKI7p7kQZJZnwL9+ReQmt019TZ4Qbf6zosRoOqKCXUs0SRlXgZGqTkhBpkD8766cGCLTjRkTX4tFCmmZy0Nkmvdxa/KUpoUElpAyK0apDd5JRMJNagqnDJreU6IXsvkQYpgRy9ncPxLsWHc8WUBiXWaQ2ihssG2uLD2bu2Bp13auWpqMHlZkEa7AavwQivwY7wGozwGuwIr8EIr8GO8BqM8BrsCK/BCK/BjvAajPAa7AivwQivwY7wGozwGuwIr8EIr8GO8BqM8BrsCK/BCK/BjvAa9CwrXoOervEa9HSN16Cna7wGPV3jNejpGq9BT9d4DZZj0O/1AkxdOw+s64KuE6NpnNyhfYr5+ngNOhnaJMYa1LAes5pYk8Ia1MmX4Y+f/VrW8l6DTsKbMh3xKhq83n2/r/LBeW/CyzHOAxwT0L4wt1hZzORyAidTlQ8iuXyAaNCZXNYfA2dRvAadRBnDhPM+1iDdAqVBtSvU4IAzi2SOsXKYyRXVTUdKg2oX/2UN2pMb6o+BV1HWV4O1wU0ZBiS2uWiQ7g4yhj7yQZUfrFM+iOSyBklskkQklw+YypNoS24NDXoKIvngyUHywbJULIs9noVSoU3i8Xg8Ho/H4/F4PB6Px+PxeDyeDgjU67Fs+HWtbbQKv0aLMBzA+vYQb+Q8HqEvQwJIiQG/gZ3Qz5z/9mkPbfPIgRHvU0MGpnIQu/mlIR9Mspvzbg6KN3AUBzngvbyHAprEwbE3HTWkv6v+dtuzEHgIDr+WZa2QGOUNLWuD/Pnl9GACL9agDJclX9HVqDelwyjrk/3yIpvzQWRx5Mm71Yl0OLkRHP/QQTIEUk71nHAk6+IMydAgbRMimr4aRQUNir/S4ECGr9g0yMOqDA2qghfB8egXr0FPjCoOKYNjJZIilCpUiQzRKJ1GZTHpDBpUparaL6oN80E+isLh3ZIJcik8jIKTot2XxZ4USkUej8fj8Xg8Ho+nLXq9/w9Z0AZmvw85lAAAAABJRU5ErkJggg==;sketch=0;" vertex="1" parent="1">
          <mxGeometry x="2380" y="510" width="606.87" height="420" as="geometry" />
        </mxCell>
        <mxCell id="9DuvOHGDFSPzMcPhEB32-28" value="&lt;b&gt;Conocimiento tácito: &lt;/b&gt;Aquel que no es concreto, que forma parte de nuestro modelo mental" style="rounded=1;whiteSpace=wrap;html=1;sketch=1;fontSize=16;align=left;" vertex="1" parent="1">
          <mxGeometry x="1240" y="414" width="310" height="60" as="geometry" />
        </mxCell>
        <mxCell id="9DuvOHGDFSPzMcPhEB32-29" value="&lt;b&gt;Conocimiento explícito: &lt;/b&gt;Aquel que está estructurado y documentado, por lo cual, podemos compartirlo" style="rounded=1;whiteSpace=wrap;html=1;sketch=1;fontSize=16;align=left;" vertex="1" parent="1">
          <mxGeometry x="1240" y="490" width="310" height="60" as="geometry" />
        </mxCell>
        <mxCell id="9DuvOHGDFSPzMcPhEB32-41" style="edgeStyle=orthogonalEdgeStyle;sketch=1;orthogonalLoop=1;jettySize=auto;html=1;fontSize=15;" edge="1" parent="1" source="9DuvOHGDFSPzMcPhEB32-35">
          <mxGeometry relative="1" as="geometry">
            <mxPoint x="1490" y="720" as="targetPoint" />
          </mxGeometry>
        </mxCell>
        <mxCell id="9DuvOHGDFSPzMcPhEB32-43" style="edgeStyle=orthogonalEdgeStyle;sketch=1;orthogonalLoop=1;jettySize=auto;html=1;entryX=0.5;entryY=0;entryDx=0;entryDy=0;fontSize=10;dashed=1;" edge="1" parent="1" source="9DuvOHGDFSPzMcPhEB32-35" target="9DuvOHGDFSPzMcPhEB32-42">
          <mxGeometry relative="1" as="geometry" />
        </mxCell>
        <mxCell id="9DuvOHGDFSPzMcPhEB32-35" value="&lt;b&gt;Fases del modelo SECI&lt;br&gt;&lt;/b&gt;" style="rounded=1;whiteSpace=wrap;html=1;sketch=1;fontSize=16;align=center;" vertex="1" parent="1">
          <mxGeometry x="1240" y="690" width="150" height="60" as="geometry" />
        </mxCell>
        <mxCell id="9DuvOHGDFSPzMcPhEB32-37" value="&lt;b&gt;Socialización:&lt;/b&gt;&lt;br&gt;&lt;div style=&quot;font-size: 15px&quot;&gt;&lt;font style=&quot;font-size: 15px&quot;&gt;Conocimiento tácito es mantenido por individuos y es constantemente mejorado por sus experiencias. Socialización se produce al compartir conocimiento tácito a través de la comunicación y mediante la&amp;nbsp;&lt;b&gt;colaboración&lt;/b&gt;.&lt;br&gt;&lt;/font&gt;&lt;/div&gt;" style="rounded=1;whiteSpace=wrap;html=1;sketch=1;fontSize=16;align=left;perimeterSpacing=0;fillColor=#fff2cc;strokeColor=#d6b656;" vertex="1" parent="1">
          <mxGeometry x="1550" y="575" width="360" height="135" as="geometry" />
        </mxCell>
        <mxCell id="9DuvOHGDFSPzMcPhEB32-38" value="&lt;b&gt;Externalización:&lt;/b&gt;&lt;br&gt;&lt;div&gt;&lt;font&gt;&lt;span style=&quot;font-size: 15px&quot;&gt;Conocimiento tácito es &lt;b&gt;convertido a explicito&lt;/b&gt; desarrollando modelos y describiendo conceptos.&amp;nbsp;&lt;/span&gt;&lt;br&gt;&lt;/font&gt;&lt;/div&gt;&lt;span style=&quot;font-size: 15px&quot;&gt;Este conocimiento explícito y algunas veces teórico forma una fundación para la creación de nuevo conocimiento.&lt;/span&gt;" style="rounded=1;whiteSpace=wrap;html=1;sketch=1;fontSize=16;align=left;perimeterSpacing=0;fillColor=#fff2cc;strokeColor=#d6b656;" vertex="1" parent="1">
          <mxGeometry x="1950" y="575" width="360" height="135" as="geometry" />
        </mxCell>
        <mxCell id="9DuvOHGDFSPzMcPhEB32-39" value="&lt;b&gt;Combinación:&lt;/b&gt;&lt;br&gt;&lt;div&gt;&lt;span style=&quot;font-size: 15px&quot;&gt;Cuando el conocimiento es explicito, puede ser combinado, generando como resultado nuevo conocimiento.&lt;/span&gt;&lt;br&gt;&lt;/div&gt;" style="rounded=1;whiteSpace=wrap;html=1;sketch=1;fontSize=16;align=left;perimeterSpacing=0;fillColor=#fff2cc;strokeColor=#d6b656;" vertex="1" parent="1">
          <mxGeometry x="1950" y="740" width="360" height="135" as="geometry" />
        </mxCell>
        <mxCell id="9DuvOHGDFSPzMcPhEB32-40" value="&lt;b&gt;Internalización:&lt;/b&gt;&lt;br&gt;&lt;div&gt;&lt;div&gt;&lt;span style=&quot;font-size: 15px&quot;&gt;Esto ocurre cuando el individuo entiende el conocimiento explícito y este se vuelve parte de su comportamiento normal. Esto construye la habilidad del individuo para desarrollar nuevo conocimiento el cual entonces vuelve al principio de socialización.&amp;nbsp;&amp;nbsp;&lt;/span&gt;&lt;/div&gt;&lt;/div&gt;" style="rounded=1;whiteSpace=wrap;html=1;sketch=1;fontSize=16;align=left;perimeterSpacing=0;fillColor=#fff2cc;strokeColor=#d6b656;" vertex="1" parent="1">
          <mxGeometry x="1550" y="740" width="360" height="135" as="geometry" />
        </mxCell>
        <mxCell id="9DuvOHGDFSPzMcPhEB32-42" value="&lt;p style=&quot;line-height: 200% ; font-family: &amp;#34;times new roman&amp;#34; ; margin-left: 0.5in ; text-indent: -0.5in ; margin-top: 0px ; margin-bottom: 0px&quot;&gt;&lt;font style=&quot;font-size: 10px&quot;&gt;&lt;a href=&quot;https://www.praxisframework.org/es/library/nonaka-and-takeuchi&quot;&gt;Praxis Framework&lt;/a&gt;&lt;/font&gt;&lt;/p&gt;" style="shape=process;whiteSpace=wrap;html=1;backgroundOutline=1;sketch=1;fontSize=6;align=left;" vertex="1" parent="1">
          <mxGeometry x="1260" y="810" width="110" height="30" as="geometry" />
        </mxCell>
      </root>
    </mxGraphModel>
  </diagram>
</mxfile>
